<?xml version="1.0" encoding="UTF-8"?><svg id="Layer_2" xmlns="http://www.w3.org/2000/svg" viewBox="0 0 146.96 29.7"><defs><style>.cls-1{fill:#fff;}.cls-2{fill:#a1d9d4;}.cls-3{fill:#95d5cf;}</style></defs><g id="Layer_1-2"><path class="cls-1" d="M142.77,29.68c1.74-.08,3.06-1.24,3.95-2.38,.96-1.23-1.32-.61-1.44-1.51-.03-.2-.08-.41-.04-.59,.73-3.51-1.64-6.04-2.87-8.91-1.44-3.37-5.17-4.73-8.06-1.46-.52,.59-1.11,1.27-1.81,1.52-5.35,1.95-10.72,3.87-16.55,3.77-3.8-.06-7.61-.18-11.39,.03-5.04,.28-9.96-1.06-14.25-2.96-5.65-2.52-12.36-4.09-15.59-10.47-.22-.43-.72-.11-1.1-.05-1.12,.18-2.31-.37-2.56-1.16-.79-2.49-3.09-2.51-4.85-3.18-4.37-1.66-8.7-3.42-13.62-1.47-4.27,1.69-6.08,5.66-8.23,8.91-1.01,1.52-1.53,4.31-2.62,6.25-2.51,4.45-6.62,6.22-11.65,5.21-1.97-.4-3.76-1.43-3.16-4.09,.19-.84,.12-1.7-.98-1.8-1.75-.15-2.36-1.61-2.84-2.78-1.34-3.26-4.43-4.17-7.1-5.49-1.56-.77-.83,2.33-2.49,2.25-.19,0-.41,.07-.56,.18-2.79,2.08-6.04,3.38-8.19,6.56-1.89,2.8-2.62,5.88-3.91,8.82-1.67,3.81-1.05,4.81,3.06,4.81,22.79,0,45.58,0,68.37,0s45.38,0,68.07,0c.8,0,1.6,.02,2.4-.02Zm-52.16-1.13c-6.2,0-12.39,0-18.59,0-22.49,0-44.98,0-67.47,0-3.54,0-3.66-.05-2.66-3.42,1.69-5.72,4.88-10.46,9.88-13.82,4.45-3,8.02-2.18,10.82,2.33,.68,1.1,1.33,2.23,1.96,3.36,3.66,6.5,10.85,7.47,16.34,2.24,2.49-2.37,3.58-5.5,4.75-8.56,1.91-4.95,4.73-8.91,10.45-9.47,4.22-.41,8.02,1.08,11.54,3.37,5.41,3.54,10.05,8.14,16.03,10.92,17.63,8.22,35.22,8.65,52.75-.04,2.58-1.28,3.78-.57,5.08,1.41,1.47,2.23,2.11,4.73,2.45,7.31,.44,3.37-.46,4.36-3.84,4.37-16.49,0-32.99,0-49.48,0Z"/><path class="cls-3" d="M143.93,24.18c-.33-2.59-.98-5.09-2.45-7.31-1.3-1.98-2.5-2.69-5.08-1.41-17.53,8.7-35.12,8.26-52.75,.04-5.98-2.78-10.62-7.38-16.03-10.92-3.52-2.3-7.32-3.79-11.54-3.37-5.72,.56-8.54,4.53-10.45,9.47-1.18,3.06-2.27,6.19-4.75,8.56-5.48,5.22-12.68,4.26-16.34-2.24-.64-1.13-1.28-2.26-1.96-3.36-2.8-4.51-6.37-5.33-10.82-2.33C6.77,14.66,3.58,19.41,1.89,25.12c-1,3.37-.88,3.42,2.66,3.42,22.49,0,44.98,0,67.47,0,6.2,0,12.39,0,18.59,0,16.49,0,32.99,0,49.48,0,3.38,0,4.28-1,3.84-4.37Zm-1.72,2.48c-.85,1.05-2.04,.63-3.08,.63-44.34,.02-88.68,.02-133.02-.01-1.35,0-4,.86-2.49-2.37,2.02-5.74,5.42-10.34,10.91-13.2,2.49-1.3,4.5-.33,5.99,1.73,.93,1.28,1.59,2.77,2.32,4.19,3.57,7,9.97,8.73,16.78,4.73,4.35-2.55,6.14-6.85,7.6-11.13,3.26-9.51,11.14-10.1,18.23-5.97,5.7,3.32,10.31,8.17,16.27,11.15,7.41,3.71,15.13,6.17,23.4,6.7,10.94,.71,21.53-.6,31.38-5.79,2.07-1.09,3.24-.53,4.24,1.49,1.24,2.51,1.65,5.1,1.48,7.84,0,0,0,0,0,0,0,0,0,0,0,0Z"/><path class="cls-1" d="M140.72,18.82c-1-2.03-2.17-2.59-4.24-1.49-9.85,5.19-20.45,6.5-31.38,5.79-8.27-.54-15.99-2.99-23.4-6.7-5.96-2.98-10.57-7.83-16.27-11.15-7.08-4.13-14.97-3.54-18.23,5.97-1.47,4.28-3.26,8.58-7.6,11.13-6.81,4-13.2,2.27-16.78-4.73-.73-1.42-1.39-2.9-2.32-4.19-1.49-2.07-3.5-3.03-5.99-1.73-5.48,2.86-8.89,7.47-10.91,13.2,0,.95,.09,1.85,1.39,1.82,.5,0,1,.01,1.5,.01,44.64,0,89.27,0,133.91,0,.6,0,1.2-.05,1.79-.07,0,0,0,0,0,0,.17-2.74-.25-5.33-1.48-7.84Z"/><path class="cls-2" d="M139.29,26.98c-44.27,.02-88.53,.02-132.8-.04-1.18,0-3.73,1.15-2.87-2.04-1.51,3.23,1.14,2.37,2.49,2.37,44.34,.04,88.68,.04,133.02,.01,1.04,0,2.23,.42,3.08-.63,0,0,0,0,0,0-.92,.6-1.95,.32-2.92,.32Z"/><path class="cls-2" d="M6.5,26.74c-.5,0-1-.02-1.5-.01-1.3,.02-1.38-.87-1.39-1.82-.85,3.19,1.7,2.03,2.87,2.04,44.27,.06,88.53,.05,132.8,.04,.97,0,2,.29,2.92-.32-.6,.03-1.2,.07-1.79,.07-44.64,0-89.27,0-133.91,0Z"/></g></svg>