<?xml version="1.0" encoding="UTF-8"?><svg id="Layer_2" xmlns="http://www.w3.org/2000/svg" viewBox="0 0 134.99 29.48"><defs><style>.cls-1{fill:#fff;}.cls-2{fill:#96d5cf;}.cls-3{fill:#a7dcdb;}</style></defs><g id="Layer_1-2"><path class="cls-1" d="M3.35,29.48c42.77-.07,85.53-.05,128.3-.06,1.15,0,2.55,.37,3.12-1.11,.51-1.33,.07-2.64-.81-3.64-1.24-1.4-2.46-3.01-4.04-3.88-2.87-1.58-5.41-3.91-9.25-3.5-3.74,.4-7.57,.42-11.34-.13-.48-.07-1.07-.52-1.4-.1-2.32,2.97-4.7,1.81-7.11,.19-.43-.29-.9-.52-1.36-.15-.16,.13-.26,.58-.16,.76,1.65,2.78-.79,1.82-1.84,1.94-1.18,.13-2.42-.14-3.59,.06-6.81,1.13-11.3-2.28-15.52-7.12-3.17-3.64-5.84-7.94-10.54-10.1-1.04-.48-1.97-.87-3.09-.74,4.72,2.61,8.4,6.41,11.54,10.68,5.71,7.77,13.39,9.77,22.48,8.26,6.78-1.12,13.5-2.72,20.46-2.24,5.67,.39,10.41,2.54,13.98,7.05,.49,.61,1.19,1.28,.84,2.1-.4,.93-1.41,.53-2.15,.53-42.69,.02-85.37,0-128.06,.05-2.06,0-2.85-.54-2.72-2.7C1.67,15.91,10.94,8.18,20.25,11.63c3.13,1.16,5.9,2.92,8.75,4.55,1.39,.79,2.76,1.63,4.22,2.27,5.31,2.32,11.05,2.46,14.33-4.97,.96-2.19,2.04-4.33,3.17-6.44C53.46,1.92,57.51,.21,63.24,1.65c.48,.12,.98,.17,1.47,.25-3.34-2.78-9.04-2.48-11.98,.73-1.79,1.96-4.33,3.48-4.63,6.85-.21,2.33-1.84,4.53-3.36,6.52-2.28,2.98-5.68,3.25-9.06,1.52-1.16-.59-2.41-2.35-3-1.91-1.56,1.15-2.15-.27-3.12-.6-3.18-1.09-5.45-3.87-8.99-4.44-2.66-.43-5.48-.88-7.94-.47C5.43,11.29-.52,19.5,.04,26.67c.15,1.93,1.1,2.82,3.31,2.81Z"/><path class="cls-1" d="M33.25,14.08c.08-.27,.25-.6,.25-.94,0-.36-.09-.89-.61-.71-.23,.08-.41,.58-.43,.91-.03,.35,.06,.79,.8,.73Z"/><path class="cls-2" d="M63.04,2.35c-8.6-1.36-10.38,2.43-13.07,7.98-.79,1.62-1.48,3.28-2.36,4.85-3.06,5.43-8.19,6.92-14.42,4.18-2.75-1.21-5.26-2.85-7.83-4.4-7.02-4.27-12.45-4.43-17.81-.29-3.22,2.49-4.81,6.04-5.49,9.99-.31,1.83,.41,2.91,2.46,2.73,.59-.05,1.2,0,1.8,0,40.89,0,81.78,0,122.67-.02,1.15,0,2.87,.6,3.34-.52,.56-1.34-1.14-2.15-2.04-2.97-3.14-2.88-6.95-4.18-11.17-4.38-5.32-.26-10.55,.38-15.75,1.45-3.72,.77-7.5,1.16-11.29,1.18-5.72,.02-10.5-2.4-14.31-6.52-4.06-4.38-7.47-9.38-12.65-12.64-.34-.22-.43-.65-.39-1.07,0,0,0,.02,0,.02,0,0,0,0,0,0,0,0,0,0,0,0-.48,.44-1.06,.55-1.67,.45Zm5.14,3.83c3.63,2.85,6.28,6.68,9.35,10.08,5.38,5.95,12.18,7.27,19.64,6.36,5.33-.65,10.58-1.94,15.91-2.52,6.86-.74,13.38,.16,18.35,5.72,0,0,0,0,0,0,.38,.36,1.26,.76,.12,1.15-.63,.22-1.38,.06-2.08,.06-41.26,0-82.51,0-123.77,0-3.71,0-4.09-.6-2.72-4.22,2.99-9.66,12.08-13.22,21.22-7.72,3.99,2.39,7.76,5.19,12.57,6.07,4.64,.85,7.94-.84,10.62-4.37,1.71-2.26,2.52-4.97,3.71-7.5,3.88-8.24,10.33-8.41,17.07-3.12Z"/><path class="cls-2" d="M50.72,7.04c-1.13,2.11-2.2,4.25-3.17,6.44-3.28,7.44-9.02,7.29-14.33,4.97-1.46-.64-2.83-1.48-4.22-2.27-2.86-1.63-5.62-3.39-8.75-4.55C10.94,8.18,1.67,15.91,1.1,25.62c-.13,2.16,.66,2.7,2.72,2.7,42.69-.05,85.37-.03,128.06-.05,.74,0,1.75,.4,2.15-.53,.35-.82-.36-1.49-.84-2.1-3.57-4.51-8.31-6.66-13.98-7.05-6.96-.48-13.69,1.12-20.46,2.24-9.08,1.51-16.76-.5-22.48-8.26-3.14-4.27-6.82-8.06-11.54-10.68-.04,.42,.05,.86,.39,1.07,5.18,3.25,8.6,8.25,12.65,12.64,3.81,4.11,8.59,6.53,14.31,6.52,3.79-.01,7.57-.41,11.29-1.18,5.2-1.07,10.43-1.71,15.75-1.45,4.22,.21,8.03,1.5,11.17,4.38,.9,.82,2.6,1.63,2.04,2.97-.47,1.12-2.18,.52-3.34,.52-40.89,.02-81.78,.02-122.67,.02-.6,0-1.2-.05-1.8,0-2.04,.17-2.77-.9-2.46-2.73,.68-3.95,2.26-7.5,5.49-9.99,5.35-4.13,10.78-3.98,17.81,.29,2.56,1.56,5.07,3.2,7.83,4.4,6.23,2.73,11.36,1.25,14.42-4.18,.88-1.57,1.58-3.23,2.36-4.85,2.7-5.54,4.48-9.33,13.07-7.98,.61,.1,1.19,0,1.67-.45,0,0,0,0,0,0-.49-.08-.99-.13-1.47-.25-5.73-1.44-9.78,.27-12.52,5.38Z"/><path class="cls-1" d="M51.11,9.3c-1.19,2.52-2,5.24-3.71,7.5-2.68,3.53-5.98,5.22-10.62,4.37-4.81-.88-8.59-3.67-12.57-6.07-9.15-5.49-18.23-1.94-21.22,7.72-.5,2.77,.44,3.74,3.45,3.73,40.53-.1,81.07-.06,121.6-.08,1.15,0,2.42,.4,3.4-.63,0,0,0,0,0,0,0,0,0,0,0,0-4.97-5.57-11.49-6.46-18.35-5.72-5.33,.58-10.59,1.87-15.91,2.52-7.46,.91-14.26-.41-19.64-6.36-3.07-3.4-5.72-7.23-9.35-10.08-6.74-5.3-13.19-5.12-17.07,3.12Z"/><path class="cls-3" d="M128.36,26.67c-34.37,.06-68.74,.05-103.1,.05-6.39,0-12.79,0-19.18,0q-3.77,0-3.09-3.9c-1.36,3.62-.98,4.22,2.72,4.22,41.26,0,82.51,0,123.77,0,.7,0,1.46,.16,2.08-.06,1.13-.39,.26-.79-.12-1.15-.62,1.72-2.07,.84-3.07,.84Z"/><path class="cls-3" d="M128.04,26.47c-40.53,.02-81.07-.02-121.6,.08-3,0-3.95-.96-3.45-3.73q-.68,3.89,3.09,3.9c6.39,0,12.79,0,19.18,0,34.37,0,68.74,0,103.1-.05,1,0,2.46,.88,3.07-.84,0,0,0,0,0,0-.98,1.03-2.25,.63-3.4,.63Z"/></g></svg>